<svg xmlns="http://www.w3.org/2000/svg" xmlns:xlink="http://www.w3.org/1999/xlink" style="margin:auto;background:#012c32;display:block;z-index:1;position:relative" width="1470" height="799" preserveAspectRatio="xMidYMid" viewBox="0 0 1470 799">
  <g transform="translate(735,399.5) scale(1,1) translate(-735,-399.5)"><path d="M-100 467.28C-73.05 481.7 -71.19 465.09 -46.13 465.09S-18.09 481.12 7.74 481.12S34.83 474.55 61.61 474.55S90.35 475.5 115.48 475.5S143.02 481.86 169.35 481.86S196.69 474.9 223.23 474.9S250.4 478.62 277.1 478.62S304.73 465.63 330.97 465.63S359.35 478.29 384.84 478.29S412.61 465.81 438.71 465.81S467.12 478.45 492.58 478.45S520.99 479.24 546.45 479.24S573.53 474.67 600.32 474.67S627.61 481.56 654.19 481.56S681.33 470.24 708.06 470.24S735.97 480.54 761.94 480.54S789.98 475.93 815.81 475.93S843.63 479.46 869.68 479.46S897.01 475.13 923.55 475.13S952 472.02 977.42 472.02S1006.13 482.13 1031.29 482.13S1060.19 469.1 1085.16 469.1S1112.78 472.47 1139.03 472.47S1166.13 475.02 1192.9 475.02S1221.73 468.57 1246.77 468.57S1275.7 465.3 1300.65 465.3S1328.26 466.18 1354.52 466.18S1382.57 474.91 1408.39 474.91S1435.54 473.54 1462.26 473.54S1489.66 464.37 1516.13 464.37S1543.33 477.09 1570 477.09S1597.65 474.51 1623.87 474.51L1570 799 L-100 799 Z" fill="#0f3135" stroke-width="0">
    <animate attributeName="d" dur="25s" repeatCount="indefinite" values="M-100 467.28C-73.05 481.7 -71.19 465.09 -46.13 465.09S-18.09 481.12 7.74 481.12S34.83 474.55 61.61 474.55S90.35 475.5 115.48 475.5S143.02 481.86 169.35 481.86S196.69 474.9 223.23 474.9S250.4 478.62 277.1 478.62S304.73 465.63 330.97 465.63S359.35 478.29 384.84 478.29S412.61 465.81 438.71 465.81S467.12 478.45 492.58 478.45S520.99 479.24 546.45 479.24S573.53 474.67 600.32 474.67S627.61 481.56 654.19 481.56S681.33 470.24 708.06 470.24S735.97 480.54 761.94 480.54S789.98 475.93 815.81 475.93S843.63 479.46 869.68 479.46S897.01 475.13 923.55 475.13S952 472.02 977.42 472.02S1006.13 482.13 1031.29 482.13S1060.19 469.1 1085.16 469.1S1112.78 472.47 1139.03 472.47S1166.13 475.02 1192.9 475.02S1221.73 468.57 1246.77 468.57S1275.7 465.3 1300.65 465.3S1328.26 466.18 1354.52 466.18S1382.57 474.91 1408.39 474.91S1435.54 473.54 1462.26 473.54S1489.66 464.37 1516.13 464.37S1543.33 477.09 1570 477.09S1597.65 474.51 1623.87 474.51L1570 799 L-100 799 Z;M-100 472.68C-71.56 473.29 -71.35 467.24 -46.13 467.24S-17.32 472.72 7.74 472.72S36.13 483.03 61.61 483.03S90.42 470.14 115.48 470.14S143.87 476.2 169.35 476.2S196.87 481.07 223.23 481.07S250.72 476.42 277.1 476.42S305.62 469.75 330.97 469.75S359.87 471.33 384.84 471.33S412.76 480.01 438.71 480.01S466.94 473.89 492.58 473.89S520.13 463.63 546.45 463.63S573.61 481.72 600.32 481.72S628.27 465.15 654.19 465.15S682.63 476.37 708.06 476.37S735.67 472.38 761.94 472.38S789.54 477.64 815.81 477.64S844.36 465.74 869.68 465.74S897.65 475.6 923.55 475.6S951.37 475.54 977.42 475.54S1006.01 481.4 1031.29 481.4S1058.28 466.69 1085.16 466.69S1112.4 471.24 1139.03 471.24S1166.56 463.9 1192.9 463.9S1220.58 475.72 1246.77 475.72S1273.79 479.84 1300.65 479.84S1328.27 480.42 1354.52 480.42S1382.09 469.98 1408.39 469.98S1436.15 466.75 1462.26 466.75S1489.35 470.65 1516.13 470.65S1543.19 475.23 1570 475.23S1597.57 476.89 1623.87 476.89L1570 799 L-100 799 Z;M-100 467.28C-73.05 481.7 -71.19 465.09 -46.13 465.09S-18.09 481.12 7.74 481.12S34.83 474.55 61.61 474.55S90.35 475.5 115.48 475.5S143.02 481.86 169.35 481.86S196.69 474.9 223.23 474.9S250.4 478.62 277.1 478.62S304.73 465.63 330.97 465.63S359.35 478.29 384.84 478.29S412.61 465.81 438.71 465.81S467.12 478.45 492.58 478.45S520.99 479.24 546.45 479.24S573.53 474.67 600.32 474.67S627.61 481.56 654.19 481.56S681.33 470.24 708.06 470.24S735.97 480.54 761.94 480.54S789.98 475.93 815.81 475.93S843.63 479.46 869.68 479.46S897.01 475.13 923.55 475.13S952 472.02 977.42 472.02S1006.13 482.13 1031.29 482.13S1060.19 469.1 1085.16 469.1S1112.78 472.47 1139.03 472.47S1166.13 475.02 1192.9 475.02S1221.73 468.57 1246.77 468.57S1275.7 465.3 1300.65 465.3S1328.26 466.18 1354.52 466.18S1382.57 474.91 1408.39 474.91S1435.54 473.54 1462.26 473.54S1489.66 464.37 1516.13 464.37S1543.33 477.09 1570 477.09S1597.65 474.51 1623.87 474.51L1570 799 L-100 799 Z"></animate>
    <animateTransform attributeName="transform" type="translate" dur="25s" begin="0s" repeatCount="indefinite" values="0;10;0" calcMode="spline" keySplines="0.3 0 0.7 1;0.3 0 0.7 1"></animateTransform>
  </path><path d="M-100 501.08C-71.01 499.11 -70.72 496.48 -44.7 496.48S-16.46 500.65 10.6 500.65S40.23 499.76 65.89 499.76S94.31 496.61 121.19 496.61S150.32 484.86 176.49 484.86S205.26 484.34 231.79 484.34S260.98 489.85 287.09 489.85S315.83 488.98 342.38 488.98S371.36 487.7 397.68 487.7S425.63 490.49 452.98 490.49S482.28 489.51 508.28 489.51S537.69 489.54 563.58 489.54S592.86 486.48 618.87 486.48S647.43 500.27 674.17 500.27S703.58 499.4 729.47 499.4S757.46 493.43 784.77 493.43S812.54 492.75 840.07 492.75S869.24 487.03 895.36 487.03S923.24 492.57 950.66 492.57S979.55 497.96 1005.96 497.96S1035.32 497.1 1061.26 497.1S1090.65 490.54 1116.56 490.54S1145.28 496.14 1171.85 496.14S1201.36 503.24 1227.15 503.24S1255.52 487.6 1282.45 487.6S1310.84 491.07 1337.75 491.07S1366.2 494.39 1393.05 494.39S1422.4 499.19 1448.34 499.19S1476.5 504.12 1503.64 504.12S1531.73 500.75 1558.94 500.75S1586.72 492.45 1614.24 492.45L1570 799 L-100 799 Z" fill="#254346" stroke-width="0">
    <animate attributeName="d" dur="22.5s" repeatCount="indefinite" values="M-100 501.08C-71.01 499.11 -70.72 496.48 -44.7 496.48S-16.46 500.65 10.6 500.65S40.23 499.76 65.89 499.76S94.31 496.61 121.19 496.61S150.32 484.86 176.49 484.86S205.26 484.34 231.79 484.34S260.98 489.85 287.09 489.85S315.83 488.98 342.38 488.98S371.36 487.7 397.68 487.7S425.63 490.49 452.98 490.49S482.28 489.51 508.28 489.51S537.69 489.54 563.58 489.54S592.86 486.48 618.87 486.48S647.43 500.27 674.17 500.27S703.58 499.4 729.47 499.4S757.46 493.43 784.77 493.43S812.54 492.75 840.07 492.75S869.24 487.03 895.36 487.03S923.24 492.57 950.66 492.57S979.55 497.96 1005.96 497.96S1035.32 497.1 1061.26 497.1S1090.65 490.54 1116.56 490.54S1145.28 496.14 1171.85 496.14S1201.36 503.24 1227.15 503.24S1255.52 487.6 1282.45 487.6S1310.84 491.07 1337.75 491.07S1366.2 494.39 1393.05 494.39S1422.4 499.19 1448.34 499.19S1476.5 504.12 1503.64 504.12S1531.73 500.75 1558.94 500.75S1586.72 492.45 1614.24 492.45L1570 799 L-100 799 Z;M-100 495.3C-70.55 504.74 -71.67 495.75 -44.7 495.75S-15.61 496.34 10.6 496.34S40.18 489.4 65.89 489.4S94.45 501.99 121.19 501.99S148.88 496.68 176.49 496.68S205.21 491.34 231.79 491.34S259.44 505.61 287.09 505.61S316.44 484.72 342.38 484.72S370.4 488.04 397.68 488.04S427.14 494.13 452.98 494.13S482.13 505.52 508.28 505.52S536.89 501.98 563.58 501.98S593 489.66 618.87 489.66S647.08 498.4 674.17 498.4S703.21 490.08 729.47 490.08S758.9 497.34 784.77 497.34S813.18 496.31 840.07 496.31S869.06 501.84 895.36 501.84S923.37 501.1 950.66 501.1S979.55 487.76 1005.96 487.76S1034.65 489.83 1061.26 489.83S1089.89 496.69 1116.56 496.69S1144.34 492.17 1171.85 492.17S1199.98 500.35 1227.15 500.35S1255 499.91 1282.45 499.91S1311.96 487.64 1337.75 487.64S1365.77 490.24 1393.05 490.24S1421.37 493.01 1448.34 493.01S1477.69 491.67 1503.64 491.67S1531.56 500.17 1558.94 500.17S1587.4 490.87 1614.24 490.87L1570 799 L-100 799 Z;M-100 501.08C-71.01 499.11 -70.72 496.48 -44.7 496.48S-16.46 500.65 10.6 500.65S40.23 499.76 65.89 499.76S94.31 496.61 121.19 496.61S150.32 484.86 176.49 484.86S205.26 484.34 231.79 484.34S260.98 489.85 287.09 489.85S315.83 488.98 342.38 488.98S371.36 487.7 397.68 487.7S425.63 490.49 452.98 490.49S482.28 489.51 508.28 489.51S537.69 489.54 563.58 489.54S592.86 486.48 618.87 486.48S647.43 500.27 674.17 500.27S703.58 499.4 729.47 499.4S757.46 493.43 784.77 493.43S812.54 492.75 840.07 492.75S869.24 487.03 895.36 487.03S923.24 492.57 950.66 492.57S979.55 497.96 1005.96 497.96S1035.32 497.1 1061.26 497.1S1090.65 490.54 1116.56 490.54S1145.28 496.14 1171.85 496.14S1201.36 503.24 1227.15 503.24S1255.52 487.6 1282.45 487.6S1310.84 491.07 1337.75 491.07S1366.2 494.39 1393.05 494.39S1422.4 499.19 1448.34 499.19S1476.5 504.12 1503.64 504.12S1531.73 500.75 1558.94 500.75S1586.72 492.45 1614.24 492.45L1570 799 L-100 799 Z"></animate>
    <animateTransform attributeName="transform" type="translate" dur="22.5s" begin="-2.25s" repeatCount="indefinite" values="0;10;0" calcMode="spline" keySplines="0.3 0 0.7 1;0.3 0 0.7 1"></animateTransform>
  </path><path d="M-100 510.08C-71.58 521.32 -70.3 520.68 -43.2 520.68S-13.56 519.14 13.61 519.14S42.91 518.02 70.41 518.02S100.59 520.46 127.21 520.46S156.83 504.95 184.01 504.95S213.86 510.9 240.82 510.9S270.51 520.49 297.62 520.49S327.43 520.37 354.42 520.37S382.83 519.52 411.22 519.52S440.31 522.21 468.03 522.21S496.85 531.26 524.83 531.26S554.11 520.77 581.63 520.77S610.3 516.86 638.44 516.86S668.62 519.55 695.24 519.55S724.51 528.02 752.04 528.02S780.91 505.91 808.84 505.91S839.1 528.12 865.65 528.12S895.44 509.26 922.45 509.26S951.16 514.05 979.25 514.05S1008.86 517.6 1036.05 517.6S1066.18 518.94 1092.86 518.94S1122.86 513.6 1149.66 513.6S1178.15 528.68 1206.46 528.68S1235.98 512.39 1263.27 512.39S1292.5 514.13 1320.07 514.13S1350.12 517.15 1376.87 517.15S1406.35 521.24 1433.67 521.24S1462.98 509.6 1490.48 509.6S1520.46 528.27 1547.28 528.27S1577.5 523.24 1604.08 523.24L1570 799 L-100 799 Z" fill="#3b5658" stroke-width="0">
    <animate attributeName="d" dur="20s" repeatCount="indefinite" values="M-100 510.08C-71.58 521.32 -70.3 520.68 -43.2 520.68S-13.56 519.14 13.61 519.14S42.91 518.02 70.41 518.02S100.59 520.46 127.21 520.46S156.83 504.95 184.01 504.95S213.86 510.9 240.82 510.9S270.51 520.49 297.62 520.49S327.43 520.37 354.42 520.37S382.83 519.52 411.22 519.52S440.31 522.21 468.03 522.21S496.85 531.26 524.83 531.26S554.11 520.77 581.63 520.77S610.3 516.86 638.44 516.86S668.62 519.55 695.24 519.55S724.51 528.02 752.04 528.02S780.91 505.91 808.84 505.91S839.1 528.12 865.65 528.12S895.44 509.26 922.45 509.26S951.16 514.05 979.25 514.05S1008.86 517.6 1036.05 517.6S1066.18 518.94 1092.86 518.94S1122.86 513.6 1149.66 513.6S1178.15 528.68 1206.46 528.68S1235.98 512.39 1263.27 512.39S1292.5 514.13 1320.07 514.13S1350.12 517.15 1376.87 517.15S1406.35 521.24 1433.67 521.24S1462.98 509.6 1490.48 509.6S1520.46 528.27 1547.28 528.27S1577.5 523.24 1604.08 523.24L1570 799 L-100 799 Z;M-100 504.65C-71.54 505.85 -70.75 527.51 -43.2 527.51S-14.13 508.38 13.61 508.38S43.12 523.06 70.41 523.06S100.17 516.82 127.21 516.82S155.79 521.29 184.01 521.29S213.78 504.92 240.82 504.92S270.25 516.77 297.62 516.77S327.85 509.36 354.42 509.36S384.34 526.17 411.22 526.17S440.06 528.97 468.03 528.97S497.24 519.28 524.83 519.28S554.86 518.88 581.63 518.88S610.62 516.09 638.44 516.09S668.28 518.64 695.24 518.64S724.08 530.15 752.04 530.15S782.09 522.74 808.84 522.74S838.02 524.02 865.65 524.02S894.07 509.93 922.45 509.93S951.12 514.03 979.25 514.03S1007.72 516.61 1036.05 516.61S1065.76 520.11 1092.86 520.11S1121.68 509.81 1149.66 509.81S1179.23 512.76 1206.46 512.76S1236.19 522.05 1263.27 522.05S1292.24 528.28 1320.07 528.28S1350.02 508.07 1376.87 508.07S1405.91 530.27 1433.67 530.27S1464 510.23 1490.48 510.23S1520.22 518.07 1547.28 518.07S1575.71 517.7 1604.08 517.7L1570 799 L-100 799 Z;M-100 510.08C-71.58 521.32 -70.3 520.68 -43.2 520.68S-13.56 519.14 13.61 519.14S42.91 518.02 70.41 518.02S100.59 520.46 127.21 520.46S156.83 504.95 184.01 504.95S213.86 510.9 240.82 510.9S270.51 520.49 297.62 520.49S327.43 520.37 354.42 520.37S382.83 519.52 411.22 519.52S440.31 522.21 468.03 522.21S496.85 531.26 524.83 531.26S554.11 520.77 581.63 520.77S610.3 516.86 638.44 516.86S668.62 519.55 695.24 519.55S724.51 528.02 752.04 528.02S780.91 505.91 808.84 505.91S839.1 528.12 865.65 528.12S895.44 509.26 922.45 509.26S951.16 514.05 979.25 514.05S1008.86 517.6 1036.05 517.6S1066.18 518.94 1092.86 518.94S1122.86 513.6 1149.66 513.6S1178.15 528.68 1206.46 528.68S1235.98 512.39 1263.27 512.39S1292.5 514.13 1320.07 514.13S1350.12 517.15 1376.87 517.15S1406.35 521.24 1433.67 521.24S1462.98 509.6 1490.48 509.6S1520.46 528.27 1547.28 528.27S1577.5 523.24 1604.08 523.24L1570 799 L-100 799 Z"></animate>
    <animateTransform attributeName="transform" type="translate" dur="20s" begin="-4s" repeatCount="indefinite" values="0;10;0" calcMode="spline" keySplines="0.3 0 0.7 1;0.3 0 0.7 1"></animateTransform>
  </path><path d="M-100 527.01C-69.69 538.55 -69.37 553.47 -41.61 553.47S-11.63 538.85 16.78 538.85S47.25 542.62 75.17 542.62S105.63 530.05 133.57 530.05S163.66 539.77 191.96 539.77S221.88 535.57 250.35 535.57S281.53 545.65 308.74 545.65S339.65 541.69 367.13 541.69S397.88 538.08 425.52 538.08S455.57 525.78 483.92 525.78S514.57 549.24 542.31 549.24S571.79 541.99 600.7 541.99S630.17 538.96 659.09 538.96S688.66 526.11 717.48 526.11S747.88 551.19 775.87 551.19S806.84 529.54 834.27 529.54S863.9 538.95 892.66 538.95S923.63 526.68 951.05 526.68S981.06 536.7 1009.44 536.7S1040.41 530.17 1067.83 530.17S1098.79 541.73 1126.22 541.73S1157.06 532.54 1184.62 532.54S1214.38 546 1243.01 546S1273.13 537.03 1301.4 537.03S1332.08 539.4 1359.79 539.4S1389.78 534.53 1418.18 534.53S1448.07 539.67 1476.57 539.67S1506.81 535.4 1534.97 535.4S1566.14 548.77 1593.36 548.77L1570 799 L-100 799 Z" fill="#51696b" stroke-width="0">
    <animate attributeName="d" dur="17.5s" repeatCount="indefinite" values="M-100 527.01C-69.69 538.55 -69.37 553.47 -41.61 553.47S-11.63 538.85 16.78 538.85S47.25 542.62 75.17 542.62S105.63 530.05 133.57 530.05S163.66 539.77 191.96 539.77S221.88 535.57 250.35 535.57S281.53 545.65 308.74 545.65S339.65 541.69 367.13 541.69S397.88 538.08 425.52 538.08S455.57 525.78 483.92 525.78S514.57 549.24 542.31 549.24S571.79 541.99 600.7 541.99S630.17 538.96 659.09 538.96S688.66 526.11 717.48 526.11S747.88 551.19 775.87 551.19S806.84 529.54 834.27 529.54S863.9 538.95 892.66 538.95S923.63 526.68 951.05 526.68S981.06 536.7 1009.44 536.7S1040.41 530.17 1067.83 530.17S1098.79 541.73 1126.22 541.73S1157.06 532.54 1184.62 532.54S1214.38 546 1243.01 546S1273.13 537.03 1301.4 537.03S1332.08 539.4 1359.79 539.4S1389.78 534.53 1418.18 534.53S1448.07 539.67 1476.57 539.67S1506.81 535.4 1534.97 535.4S1566.14 548.77 1593.36 548.77L1570 799 L-100 799 Z;M-100 539.89C-69.06 537 -68.87 545.19 -41.61 545.19S-11.36 527.46 16.78 527.46S46.31 553.87 75.17 553.87S105.55 531.97 133.57 531.97S164.36 551.29 191.96 551.29S222.74 537.26 250.35 537.26S280.94 537.86 308.74 537.86S338.68 539.52 367.13 539.52S396.8 551.27 425.52 551.27S456.21 541.43 483.92 541.43S514.48 540.16 542.31 540.16S572.65 528.25 600.7 528.25S631.82 535.77 659.09 535.77S690.24 528.95 717.48 528.95S748.21 549.58 775.87 549.58S807.01 551.58 834.27 551.58S865.28 543.33 892.66 543.33S923.02 538.03 951.05 538.03S981.89 523.78 1009.44 523.78S1038.69 531.13 1067.83 531.13S1098.82 543.14 1126.22 543.14S1156.18 523.93 1184.62 523.93S1215.63 547.19 1243.01 547.19S1273.45 538.73 1301.4 538.73S1331.66 550.4 1359.79 550.4S1389.33 535.76 1418.18 535.76S1447.44 542.8 1476.57 542.8S1506.2 538.58 1534.97 538.58S1565.68 540.84 1593.36 540.84L1570 799 L-100 799 Z;M-100 527.01C-69.69 538.55 -69.37 553.47 -41.61 553.47S-11.63 538.85 16.78 538.85S47.25 542.62 75.17 542.62S105.63 530.05 133.57 530.05S163.66 539.77 191.96 539.77S221.88 535.57 250.35 535.57S281.53 545.65 308.74 545.65S339.65 541.69 367.13 541.69S397.88 538.08 425.52 538.08S455.57 525.78 483.92 525.78S514.57 549.24 542.31 549.24S571.79 541.99 600.7 541.99S630.17 538.96 659.09 538.96S688.66 526.11 717.48 526.11S747.88 551.19 775.87 551.19S806.84 529.54 834.27 529.54S863.9 538.95 892.66 538.95S923.63 526.68 951.05 526.68S981.06 536.7 1009.44 536.7S1040.41 530.17 1067.83 530.17S1098.79 541.73 1126.22 541.73S1157.06 532.54 1184.62 532.54S1214.38 546 1243.01 546S1273.13 537.03 1301.4 537.03S1332.08 539.4 1359.79 539.4S1389.78 534.53 1418.18 534.53S1448.07 539.67 1476.57 539.67S1506.81 535.4 1534.97 535.4S1566.14 548.77 1593.36 548.77L1570 799 L-100 799 Z"></animate>
    <animateTransform attributeName="transform" type="translate" dur="17.5s" begin="-5.25s" repeatCount="indefinite" values="0;10;0" calcMode="spline" keySplines="0.3 0 0.7 1;0.3 0 0.7 1"></animateTransform>
  </path><path d="M-100 560.43C-69.66 549.18 -69.18 565.9 -39.93 565.9S-8.08 572.22 20.14 572.22S50.86 575.92 80.22 575.92S110.73 573.98 140.29 573.98S171.08 577.35 200.36 577.35S230.79 551.78 260.43 551.78S291.27 572.36 320.5 572.36S351.68 563.2 380.58 563.2S412.23 569.28 440.65 569.28S472.35 551.42 500.72 551.42S531.03 574.79 560.79 574.79S591.82 559.12 620.86 559.12S652.89 575.72 680.94 575.72S711.4 555.42 741.01 555.42S772.52 570.96 801.08 570.96S831.95 553.07 861.15 553.07S892.84 563.91 921.22 563.91S953.23 552.11 981.29 552.11S1011.67 572.34 1041.37 572.34S1072.32 561.88 1101.44 561.88S1132.06 565.43 1161.51 565.43S1191.55 562.67 1221.58 562.67S1251.73 573.71 1281.65 573.71S1312.17 552.34 1341.73 552.34S1373.38 566.4 1401.8 566.4S1433.05 554.03 1461.87 554.03S1493.33 550.18 1521.94 550.18S1552.11 557.49 1582.01 557.49L1570 799 L-100 799 Z" fill="#677d7f" stroke-width="0">
    <animate attributeName="d" dur="15s" repeatCount="indefinite" values="M-100 560.43C-69.66 549.18 -69.18 565.9 -39.93 565.9S-8.08 572.22 20.14 572.22S50.86 575.92 80.22 575.92S110.73 573.98 140.29 573.98S171.08 577.35 200.36 577.35S230.79 551.78 260.43 551.78S291.27 572.36 320.5 572.36S351.68 563.2 380.58 563.2S412.23 569.28 440.65 569.28S472.35 551.42 500.72 551.42S531.03 574.79 560.79 574.79S591.82 559.12 620.86 559.12S652.89 575.72 680.94 575.72S711.4 555.42 741.01 555.42S772.52 570.96 801.08 570.96S831.95 553.07 861.15 553.07S892.84 563.91 921.22 563.91S953.23 552.11 981.29 552.11S1011.67 572.34 1041.37 572.34S1072.32 561.88 1101.44 561.88S1132.06 565.43 1161.51 565.43S1191.55 562.67 1221.58 562.67S1251.73 573.71 1281.65 573.71S1312.17 552.34 1341.73 552.34S1373.38 566.4 1401.8 566.4S1433.05 554.03 1461.87 554.03S1493.33 550.18 1521.94 550.18S1552.11 557.49 1582.01 557.49L1570 799 L-100 799 Z;M-100 561.62C-68.28 571.9 -69.36 564.27 -39.93 564.27S-9.54 548.53 20.14 548.53S51.27 574 80.22 574S111.23 545.62 140.29 545.62S171.63 570.61 200.36 570.61S231.13 553.23 260.43 553.23S291.59 568.61 320.5 568.61S350.92 570.41 380.58 570.41S412.3 567.6 440.65 567.6S471.02 557.29 500.72 557.29S530.77 562.59 560.79 562.59S591.6 576.8 620.86 576.8S652.62 578.71 680.94 578.71S711.28 546.27 741.01 546.27S771.46 574.15 801.08 574.15S832.46 578.6 861.15 578.6S892.85 577.4 921.22 577.4S951.54 545.79 981.29 545.79S1012.12 567.59 1041.37 567.59S1072.43 554.34 1101.44 554.34S1133.39 576.35 1161.51 576.35S1192.65 546.29 1221.58 546.29S1252.2 565.34 1281.65 565.34S1312.54 578.35 1341.73 578.35S1373.27 572.81 1401.8 572.81S1432.24 550.9 1461.87 550.9S1493.68 577.22 1521.94 577.22S1553.42 549.01 1582.01 549.01L1570 799 L-100 799 Z;M-100 560.43C-69.66 549.18 -69.18 565.9 -39.93 565.9S-8.08 572.22 20.14 572.22S50.86 575.92 80.22 575.92S110.73 573.98 140.29 573.98S171.08 577.35 200.36 577.35S230.79 551.78 260.43 551.78S291.27 572.36 320.5 572.36S351.68 563.2 380.58 563.2S412.23 569.28 440.65 569.28S472.35 551.42 500.72 551.42S531.03 574.79 560.79 574.79S591.82 559.12 620.86 559.12S652.89 575.72 680.94 575.72S711.4 555.42 741.01 555.42S772.52 570.96 801.08 570.96S831.95 553.07 861.15 553.07S892.84 563.91 921.22 563.91S953.23 552.11 981.29 552.11S1011.67 572.34 1041.37 572.34S1072.32 561.88 1101.44 561.88S1132.06 565.43 1161.51 565.43S1191.55 562.67 1221.58 562.67S1251.73 573.71 1281.65 573.71S1312.17 552.34 1341.73 552.34S1373.38 566.4 1401.8 566.4S1433.05 554.03 1461.87 554.03S1493.33 550.18 1521.94 550.18S1552.11 557.49 1582.01 557.49L1570 799 L-100 799 Z"></animate>
    <animateTransform attributeName="transform" type="translate" dur="15s" begin="-6s" repeatCount="indefinite" values="0;10;0" calcMode="spline" keySplines="0.3 0 0.7 1;0.3 0 0.7 1"></animateTransform>
  </path><path d="M-100 599.09C-68.23 594.21 -68.8 593.29 -38.15 593.29S-5.23 564.56 23.7 564.56S56.41 566.2 85.56 566.2S117.61 568.47 147.41 568.47S178.85 588.52 209.26 588.52S242.15 575.24 271.11 575.24S303.12 571.47 332.96 571.47S364.01 575.88 394.81 575.88S427.17 596.8 456.67 596.8S489.27 582.58 518.52 582.58S549.68 590.6 580.37 590.6S611.5 566.09 642.22 566.09S674.89 588.11 704.07 588.11S736.22 565.25 765.93 565.25S798.69 590.42 827.78 590.42S860.29 569.09 889.63 569.09S922.13 594.33 951.48 594.33S982.57 572.59 1013.33 572.59S1045.41 574.37 1075.19 574.37S1108.07 577.64 1137.04 577.64S1168.34 603.24 1198.89 603.24S1230.14 569.44 1260.74 569.44S1292.64 583.87 1322.59 583.87S1354.86 563.31 1384.44 563.31S1416.89 592.21 1446.3 592.21S1477.39 579.91 1508.15 579.91S1539.7 585.79 1570 585.79S1601.54 568.88 1631.85 568.88L1570 799 L-100 799 Z" fill="#7e9193" stroke-width="0">
    <animate attributeName="d" dur="12.5s" repeatCount="indefinite" values="M-100 599.09C-68.23 594.21 -68.8 593.29 -38.15 593.29S-5.23 564.56 23.7 564.56S56.41 566.2 85.56 566.2S117.61 568.47 147.41 568.47S178.85 588.52 209.26 588.52S242.15 575.24 271.11 575.24S303.12 571.47 332.96 571.47S364.01 575.88 394.81 575.88S427.17 596.8 456.67 596.8S489.27 582.58 518.52 582.58S549.68 590.6 580.37 590.6S611.5 566.09 642.22 566.09S674.89 588.11 704.07 588.11S736.22 565.25 765.93 565.25S798.69 590.42 827.78 590.42S860.29 569.09 889.63 569.09S922.13 594.33 951.48 594.33S982.57 572.59 1013.33 572.59S1045.41 574.37 1075.19 574.37S1108.07 577.64 1137.04 577.64S1168.34 603.24 1198.89 603.24S1230.14 569.44 1260.74 569.44S1292.64 583.87 1322.59 583.87S1354.86 563.31 1384.44 563.31S1416.89 592.21 1446.3 592.21S1477.39 579.91 1508.15 579.91S1539.7 585.79 1570 585.79S1601.54 568.88 1631.85 568.88L1570 799 L-100 799 Z;M-100 577.87C-67.5 577.31 -68.7 570.56 -38.15 570.56S-5.92 564.44 23.7 564.44S56.18 586.03 85.56 586.03S116.88 590.17 147.41 590.17S179.16 593.42 209.26 593.42S240.86 571.32 271.11 571.32S303.17 586.15 332.96 586.15S365.11 578.36 394.81 578.36S426.01 580.46 456.67 580.46S487.8 566.09 518.52 566.09S549.8 598.52 580.37 598.52S611.97 564.98 642.22 564.98S673.98 584.4 704.07 584.4S735.92 564.25 765.93 564.25S797.78 601.89 827.78 601.89S859.87 578.11 889.63 578.11S921.73 574.51 951.48 574.51S983.99 575.93 1013.33 575.93S1045.76 586.78 1075.19 586.78S1107.65 582.24 1137.04 582.24S1168.55 600.08 1198.89 600.08S1231.34 572.99 1260.74 572.99S1291.71 590.81 1322.59 590.81S1354.54 567.07 1384.44 567.07S1416.14 601.7 1446.3 601.7S1477.51 581.76 1508.15 581.76S1540 591.89 1570 591.89S1601 578.01 1631.85 578.01L1570 799 L-100 799 Z;M-100 599.09C-68.23 594.21 -68.8 593.29 -38.15 593.29S-5.23 564.56 23.7 564.56S56.41 566.2 85.56 566.2S117.61 568.47 147.41 568.47S178.85 588.52 209.26 588.52S242.15 575.24 271.11 575.24S303.12 571.47 332.96 571.47S364.01 575.88 394.81 575.88S427.17 596.8 456.67 596.8S489.27 582.58 518.52 582.58S549.68 590.6 580.37 590.6S611.5 566.09 642.22 566.09S674.89 588.11 704.07 588.11S736.22 565.25 765.93 565.25S798.69 590.42 827.78 590.42S860.29 569.09 889.63 569.09S922.13 594.33 951.48 594.33S982.57 572.59 1013.33 572.59S1045.41 574.37 1075.19 574.37S1108.07 577.64 1137.04 577.64S1168.34 603.24 1198.89 603.24S1230.14 569.44 1260.74 569.44S1292.64 583.87 1322.59 583.87S1354.86 563.31 1384.44 563.31S1416.89 592.21 1446.3 592.21S1477.39 579.91 1508.15 579.91S1539.7 585.79 1570 585.79S1601.54 568.88 1631.85 568.88L1570 799 L-100 799 Z"></animate>
    <animateTransform attributeName="transform" type="translate" dur="12.5s" begin="-6.25s" repeatCount="indefinite" values="0;10;0" calcMode="spline" keySplines="0.3 0 0.7 1;0.3 0 0.7 1"></animateTransform>
  </path><path d="M-100 589.59C-66.82 584.06 -67.95 611.22 -36.26 611.22S-4.34 594.37 27.48 594.37S60.61 616.11 91.22 616.11S123.43 592.1 154.96 592.1S188.4 618.75 218.7 618.75S252.04 588.79 282.44 588.79S314.51 588.5 346.18 588.5S379.49 592.91 409.92 592.91S443.2 623.35 473.66 623.35S506.18 593.4 537.4 593.4S570.5 609.56 601.15 609.56S633.24 584.42 664.89 584.42S697.63 626.76 728.63 626.76S761.71 593.61 792.37 593.61S824.69 589.45 856.11 589.45S889.01 593.72 919.85 593.72S952.45 611.91 983.59 611.91S1017.27 593.42 1047.33 593.42S1079.3 625.51 1111.07 625.51S1144.1 613.12 1174.81 613.12S1206.77 624.79 1238.55 624.79S1271.04 592.89 1302.29 592.89S1336.1 585.07 1366.03 585.07S1398.07 591.76 1429.77 591.76S1462.19 622.62 1493.51 622.62S1526.57 603.12 1557.25 603.12S1590.92 594.44 1620.99 594.44L1570 799 L-100 799 Z" fill="#95a6a7" stroke-width="0">
    <animate attributeName="d" dur="10s" repeatCount="indefinite" values="M-100 589.59C-66.82 584.06 -67.95 611.22 -36.26 611.22S-4.34 594.37 27.48 594.37S60.61 616.11 91.22 616.11S123.43 592.1 154.96 592.1S188.4 618.75 218.7 618.75S252.04 588.79 282.44 588.79S314.51 588.5 346.18 588.5S379.49 592.91 409.92 592.91S443.2 623.35 473.66 623.35S506.18 593.4 537.4 593.4S570.5 609.56 601.15 609.56S633.24 584.42 664.89 584.42S697.63 626.76 728.63 626.76S761.71 593.61 792.37 593.61S824.69 589.45 856.11 589.45S889.01 593.72 919.85 593.72S952.45 611.91 983.59 611.91S1017.27 593.42 1047.33 593.42S1079.3 625.51 1111.07 625.51S1144.1 613.12 1174.81 613.12S1206.77 624.79 1238.55 624.79S1271.04 592.89 1302.29 592.89S1336.1 585.07 1366.03 585.07S1398.07 591.76 1429.77 591.76S1462.19 622.62 1493.51 622.62S1526.57 603.12 1557.25 603.12S1590.92 594.44 1620.99 594.44L1570 799 L-100 799 Z;M-100 597.12C-66.68 598.75 -66.75 608.12 -36.26 608.12S-4.32 594.74 27.48 594.74S60.21 622.78 91.22 622.78S124.75 591.21 154.96 591.21S187.09 611.06 218.7 611.06S251.07 592.72 282.44 592.72S314.35 614.06 346.18 614.06S378.9 589.03 409.92 589.03S442.12 620.13 473.66 620.13S507.22 599.47 537.4 599.47S570.12 616.67 601.15 616.67S633.2 592.81 664.89 592.81S698.13 622.19 728.63 622.19S760.76 584.49 792.37 584.49S824.73 608.11 856.11 608.11S889.75 583.83 919.85 583.83S952.59 615.96 983.59 615.96S1015.85 600.94 1047.33 600.94S1080.85 609.14 1111.07 609.14S1143.22 597.03 1174.81 597.03S1208.11 621.75 1238.55 621.75S1272.12 598.15 1302.29 598.15S1334.77 613.28 1366.03 613.28S1399.35 625.63 1429.77 625.63S1462.37 608.45 1493.51 608.45S1527 599.68 1557.25 599.68S1589.8 614.16 1620.99 614.16L1570 799 L-100 799 Z;M-100 589.59C-66.82 584.06 -67.95 611.22 -36.26 611.22S-4.34 594.37 27.48 594.37S60.61 616.11 91.22 616.11S123.43 592.1 154.96 592.1S188.4 618.75 218.7 618.75S252.04 588.79 282.44 588.79S314.51 588.5 346.18 588.5S379.49 592.91 409.92 592.91S443.2 623.35 473.66 623.35S506.18 593.4 537.4 593.4S570.5 609.56 601.15 609.56S633.24 584.42 664.89 584.42S697.63 626.76 728.63 626.76S761.71 593.61 792.37 593.61S824.69 589.45 856.11 589.45S889.01 593.72 919.85 593.72S952.45 611.91 983.59 611.91S1017.27 593.42 1047.33 593.42S1079.3 625.51 1111.07 625.51S1144.1 613.12 1174.81 613.12S1206.77 624.79 1238.55 624.79S1271.04 592.89 1302.29 592.89S1336.1 585.07 1366.03 585.07S1398.07 591.76 1429.77 591.76S1462.19 622.62 1493.51 622.62S1526.57 603.12 1557.25 603.12S1590.92 594.44 1620.99 594.44L1570 799 L-100 799 Z"></animate>
    <animateTransform attributeName="transform" type="translate" dur="10s" begin="-6s" repeatCount="indefinite" values="0;10;0" calcMode="spline" keySplines="0.3 0 0.7 1;0.3 0 0.7 1"></animateTransform>
  </path><path d="M-100 647.98C-66.06 641.09 -65.76 651 -34.25 651S-0.18 621.51 31.5 621.51S65.02 640.12 97.24 640.12S132.02 605.85 162.99 605.85S196.17 637.26 228.74 637.26S262.04 612.04 294.49 612.04S328.71 647.29 360.24 647.29S394.88 617.15 425.98 617.15S459.33 644.4 491.73 644.4S526.3 605.59 557.48 605.59S592.24 649.01 623.23 649.01S657.74 621.27 688.98 621.27S723.06 635.14 754.72 635.14S788.91 607.09 820.47 607.09S855.09 637.45 886.22 637.45S920.54 640.94 951.97 640.94S984.98 632.54 1017.72 632.54S1052.57 615.69 1083.46 615.69S1117.58 647.34 1149.21 647.34S1184.07 609.34 1214.96 609.34S1249.78 641.82 1280.71 641.82S1313.61 610.08 1346.46 610.08S1380.42 631.61 1412.2 631.61S1446.39 620.21 1477.95 620.21S1511.99 644.55 1543.7 644.55S1577.76 607.29 1609.45 607.29L1570 799 L-100 799 Z" fill="#adbcbc" stroke-width="0">
    <animate attributeName="d" dur="7.5s" repeatCount="indefinite" values="M-100 647.98C-66.06 641.09 -65.76 651 -34.25 651S-0.18 621.51 31.5 621.51S65.02 640.12 97.24 640.12S132.02 605.85 162.99 605.85S196.17 637.26 228.74 637.26S262.04 612.04 294.49 612.04S328.71 647.29 360.24 647.29S394.88 617.15 425.98 617.15S459.33 644.4 491.73 644.4S526.3 605.59 557.48 605.59S592.24 649.01 623.23 649.01S657.74 621.27 688.98 621.27S723.06 635.14 754.72 635.14S788.91 607.09 820.47 607.09S855.09 637.45 886.22 637.45S920.54 640.94 951.97 640.94S984.98 632.54 1017.72 632.54S1052.57 615.69 1083.46 615.69S1117.58 647.34 1149.21 647.34S1184.07 609.34 1214.96 609.34S1249.78 641.82 1280.71 641.82S1313.61 610.08 1346.46 610.08S1380.42 631.61 1412.2 631.61S1446.39 620.21 1477.95 620.21S1511.99 644.55 1543.7 644.55S1577.76 607.29 1609.45 607.29L1570 799 L-100 799 Z;M-100 617.83C-65.55 612.69 -65.78 634.19 -34.25 634.19S-0.82 607.99 31.5 607.99S65.36 616.65 97.24 616.65S130.83 620.76 162.99 620.76S196.21 639.87 228.74 639.87S262.72 603.59 294.49 603.59S328.44 634.62 360.24 634.62S394.32 620.02 425.98 620.02S460.57 642.45 491.73 642.45S526.24 615.82 557.48 615.82S590.7 635.6 623.23 635.6S656.8 618.77 688.98 618.77S722.34 633.16 754.72 633.16S788.32 622.53 820.47 622.53S853.67 651.17 886.22 651.17S920.02 606.47 951.97 606.47S984.99 638.72 1017.72 638.72S1052 611.71 1083.46 611.71S1117.07 648.98 1149.21 648.98S1183 611.38 1214.96 611.38S1249.8 635.03 1280.71 635.03S1313.8 604.54 1346.46 604.54S1381.26 648.97 1412.2 648.97S1446.65 610.19 1477.95 610.19S1511.18 631.67 1543.7 631.67S1576.65 609.47 1609.45 609.47L1570 799 L-100 799 Z;M-100 647.98C-66.06 641.09 -65.76 651 -34.25 651S-0.18 621.51 31.5 621.51S65.02 640.12 97.24 640.12S132.02 605.85 162.99 605.85S196.17 637.26 228.74 637.26S262.04 612.04 294.49 612.04S328.71 647.29 360.24 647.29S394.88 617.15 425.98 617.15S459.33 644.4 491.73 644.4S526.3 605.59 557.48 605.59S592.24 649.01 623.23 649.01S657.74 621.27 688.98 621.27S723.06 635.14 754.72 635.14S788.91 607.09 820.47 607.09S855.09 637.45 886.22 637.45S920.54 640.94 951.97 640.94S984.98 632.54 1017.72 632.54S1052.57 615.69 1083.46 615.69S1117.58 647.34 1149.21 647.34S1184.07 609.34 1214.96 609.34S1249.78 641.82 1280.71 641.82S1313.61 610.08 1346.46 610.08S1380.42 631.61 1412.2 631.61S1446.39 620.21 1477.95 620.21S1511.99 644.55 1543.7 644.55S1577.76 607.29 1609.45 607.29L1570 799 L-100 799 Z"></animate>
    <animateTransform attributeName="transform" type="translate" dur="7.5s" begin="-5.25s" repeatCount="indefinite" values="0;10;0" calcMode="spline" keySplines="0.3 0 0.7 1;0.3 0 0.7 1"></animateTransform>
  </path><path d="M-100 623.81C-65.97 638.73 -65.93 661.96 -32.11 661.96S3.72 625.4 35.77 625.4S71.17 623.62 103.66 623.62S139.09 636.85 171.54 636.85S206.68 668.8 239.43 668.8S274.44 638.89 307.32 638.89S341.4 656.24 375.2 656.24S410.32 638 443.09 638S477.07 657.87 510.98 657.87S546.75 637.98 578.86 637.98S613.47 663.76 646.75 663.76S680.9 639.49 714.63 639.49S750.52 641 782.52 641S816.81 633.43 850.41 633.43S885.12 665.45 918.29 665.45S953.21 632.17 986.18 632.17S1021.45 671.13 1054.07 671.13S1088.55 630.95 1121.95 630.95S1156.91 666.92 1189.84 666.92S1225.09 631.41 1257.72 631.41S1292.04 658.26 1325.61 658.26S1361.05 639.42 1393.5 639.42S1429.02 661.91 1461.38 661.91S1496.46 635.19 1529.27 635.19S1564.45 664.75 1597.15 664.75L1570 799 L-100 799 Z" fill="#c6d2d2" stroke-width="0">
    <animate attributeName="d" dur="5s" repeatCount="indefinite" values="M-100 623.81C-65.97 638.73 -65.93 661.96 -32.11 661.96S3.72 625.4 35.77 625.4S71.17 623.62 103.66 623.62S139.09 636.85 171.54 636.85S206.68 668.8 239.43 668.8S274.44 638.89 307.32 638.89S341.4 656.24 375.2 656.24S410.32 638 443.09 638S477.07 657.87 510.98 657.87S546.75 637.98 578.86 637.98S613.47 663.76 646.75 663.76S680.9 639.49 714.63 639.49S750.52 641 782.52 641S816.81 633.43 850.41 633.43S885.12 665.45 918.29 665.45S953.21 632.17 986.18 632.17S1021.45 671.13 1054.07 671.13S1088.55 630.95 1121.95 630.95S1156.91 666.92 1189.84 666.92S1225.09 631.41 1257.72 631.41S1292.04 658.26 1325.61 658.26S1361.05 639.42 1393.5 639.42S1429.02 661.91 1461.38 661.91S1496.46 635.19 1529.27 635.19S1564.45 664.75 1597.15 664.75L1570 799 L-100 799 Z;M-100 661.77C-65.09 674.75 -65.05 664.76 -32.11 664.76S3.75 624.06 35.77 624.06S70.5 661.55 103.66 661.55S138.92 628.43 171.54 628.43S206.49 674.77 239.43 674.77S273.61 631.49 307.32 631.49S341.99 668.03 375.2 668.03S410.85 636.23 443.09 636.23S478.42 670.15 510.98 670.15S545.87 626.86 578.86 626.86S614.79 659.98 646.75 659.98S682.23 632.22 714.63 632.22S750.41 661.67 782.52 661.67S818.29 634.06 850.41 634.06S885.03 668.91 918.29 668.91S953.07 624.01 986.18 624.01S1020.99 669.21 1054.07 669.21S1088.81 624.55 1121.95 624.55S1156.21 662.84 1189.84 662.84S1224.72 639.06 1257.72 639.06S1293.37 657.89 1325.61 657.89S1359.89 626.25 1393.5 626.25S1428.81 662.46 1461.38 662.46S1495.97 632.49 1529.27 632.49S1563.5 659.97 1597.15 659.97L1570 799 L-100 799 Z;M-100 623.81C-65.97 638.73 -65.93 661.96 -32.11 661.96S3.72 625.4 35.77 625.4S71.17 623.62 103.66 623.62S139.09 636.85 171.54 636.85S206.68 668.8 239.43 668.8S274.44 638.89 307.32 638.89S341.4 656.24 375.2 656.24S410.32 638 443.09 638S477.07 657.87 510.98 657.87S546.75 637.98 578.86 637.98S613.47 663.76 646.75 663.76S680.9 639.49 714.63 639.49S750.52 641 782.52 641S816.81 633.43 850.41 633.43S885.12 665.45 918.29 665.45S953.21 632.17 986.18 632.17S1021.45 671.13 1054.07 671.13S1088.55 630.95 1121.95 630.95S1156.91 666.92 1189.84 666.92S1225.09 631.41 1257.72 631.41S1292.04 658.26 1325.61 658.26S1361.05 639.42 1393.5 639.42S1429.02 661.91 1461.38 661.91S1496.46 635.19 1529.27 635.19S1564.45 664.75 1597.15 664.75L1570 799 L-100 799 Z"></animate>
    <animateTransform attributeName="transform" type="translate" dur="5s" begin="-4s" repeatCount="indefinite" values="0;10;0" calcMode="spline" keySplines="0.3 0 0.7 1;0.3 0 0.7 1"></animateTransform>
  </path><path d="M-100 650.1C-64.63 647.3 -63.94 688.66 -29.83 688.66S5.37 658.89 40.34 658.89S77.1 694.77 110.5 694.77S146.42 651.08 180.67 651.08S217.32 681.17 250.84 681.17S287.11 661.18 321.01 661.18S356.58 698.7 391.18 698.7S427.73 644.25 461.34 644.25S497.63 685.9 531.51 685.9S567.7 653.51 601.68 653.51S637.69 698.77 671.85 698.77S708.64 645.56 742.02 645.56S777.29 685.16 812.18 685.16S849.09 646.89 882.35 646.89S918.4 684.35 952.52 684.35S989.15 659.23 1022.69 659.23S1058.83 679.48 1092.86 679.48S1128.38 647.67 1163.03 647.67S1198.73 684.62 1233.19 684.62S1269.05 662.76 1303.36 662.76S1340.17 690.02 1373.53 690.02S1410.1 647.49 1443.7 647.49S1480.03 681.2 1513.87 681.2S1550.61 643.29 1584.03 643.29L1570 799 L-100 799 Z" fill="#dfe8e8" stroke-width="0">
    <animate attributeName="d" dur="2.5s" repeatCount="indefinite" values="M-100 650.1C-64.63 647.3 -63.94 688.66 -29.83 688.66S5.37 658.89 40.34 658.89S77.1 694.77 110.5 694.77S146.42 651.08 180.67 651.08S217.32 681.17 250.84 681.17S287.11 661.18 321.01 661.18S356.58 698.7 391.18 698.7S427.73 644.25 461.34 644.25S497.63 685.9 531.51 685.9S567.7 653.51 601.68 653.51S637.69 698.77 671.85 698.77S708.64 645.56 742.02 645.56S777.29 685.16 812.18 685.16S849.09 646.89 882.35 646.89S918.4 684.35 952.52 684.35S989.15 659.23 1022.69 659.23S1058.83 679.48 1092.86 679.48S1128.38 647.67 1163.03 647.67S1198.73 684.62 1233.19 684.62S1269.05 662.76 1303.36 662.76S1340.17 690.02 1373.53 690.02S1410.1 647.49 1443.7 647.49S1480.03 681.2 1513.87 681.2S1550.61 643.29 1584.03 643.29L1570 799 L-100 799 Z;M-100 698.85C-63.89 684.44 -63.35 681.51 -29.83 681.51S6.94 696.81 40.34 696.81S77.11 694.82 110.5 694.82S147.12 648.45 180.67 648.45S217.4 679.46 250.84 679.46S286.48 643.2 321.01 643.2S356.47 693.66 391.18 693.66S427.21 659.27 461.34 659.27S497.61 694.12 531.51 694.12S566.73 656.99 601.68 656.99S638.38 684.27 671.85 684.27S708.08 658.32 742.02 658.32S778.46 662.93 812.18 662.93S847.92 652.11 882.35 652.11S918.53 698.47 952.52 698.47S989.11 655.34 1022.69 655.34S1058.47 646.07 1092.86 646.07S1128.84 661.87 1163.03 661.87S1199.6 684.17 1233.19 684.17S1269.47 662.62 1303.36 662.62S1340 658.43 1373.53 658.43S1410.35 643.99 1443.7 643.99S1479.89 695.35 1513.87 695.35S1549.26 659.91 1584.03 659.91L1570 799 L-100 799 Z;M-100 650.1C-64.63 647.3 -63.94 688.66 -29.83 688.66S5.37 658.89 40.34 658.89S77.1 694.77 110.5 694.77S146.42 651.08 180.67 651.08S217.32 681.17 250.84 681.17S287.11 661.18 321.01 661.18S356.58 698.7 391.18 698.7S427.73 644.25 461.34 644.25S497.63 685.9 531.51 685.9S567.7 653.51 601.68 653.51S637.69 698.77 671.85 698.77S708.64 645.56 742.02 645.56S777.29 685.16 812.18 685.16S849.09 646.89 882.35 646.89S918.4 684.35 952.52 684.35S989.15 659.23 1022.69 659.23S1058.83 679.48 1092.86 679.48S1128.38 647.67 1163.03 647.67S1198.73 684.62 1233.19 684.62S1269.05 662.76 1303.36 662.76S1340.17 690.02 1373.53 690.02S1410.1 647.49 1443.7 647.49S1480.03 681.2 1513.87 681.2S1550.61 643.29 1584.03 643.29L1570 799 L-100 799 Z"></animate>
    <animateTransform attributeName="transform" type="translate" dur="2.5s" begin="-2.25s" repeatCount="indefinite" values="0;10;0" calcMode="spline" keySplines="0.3 0 0.7 1;0.3 0 0.7 1"></animateTransform>
  </path></g>
</svg>